#!OML:ASF F:\VICON\USERDATA\INSTALL\rory3\rory3.ASF
:FULLY-SPECIFIED
:DEGREES
329
root -3.49706 18.0918 5.87978 2.77555 -46.2181 -4.08863
lowerback 10.4454 2.2494 3.8967
upperback 0.846778 3.46548 0.873481
thorax -4.79147 1.62893 -1.77061
lowerneck -20.7593 -5.00915 -9.91664
upperneck 25.8804 -5.8226 6.5847
head 12.5458 -2.75309 3.18657
rclavicle -1.13108e-013 -7.35503e-015
rhumerus -31.0956 -11.0731 -78.9169
rradius 34.3926
rwrist 7.16812
rhand -11.0582 10.1605
rfingers 7.12502
rthumb 14.9644 -19.2789
lclavicle -1.13108e-013 -7.35503e-015
lhumerus -35.7676 3.61686 83.317
lradius 30.7757
lwrist -10.8653
lhand -13.7595 26.3915
lfingers 7.12502
lthumb 12.361 56.0061
rfemur 0.810699 4.81726 29.312
rtibia 24.7401
rfoot -18.5077 -7.74569
rtoes 5.07261
lfemur -24.0817 -3.21075 -15.187
ltibia 24.2439
lfoot -7.0524 5.77435
ltoes 0.765512
330
root -3.58697 18.0844 5.97886 2.89897 -46.4644 -4.1054
lowerback 10.3791 2.34976 3.94987
upperback 0.861049 3.59869 0.826005
thorax -4.72566 1.69499 -1.86391
lowerneck -20.8422 -5.0227 -9.90118
upperneck 25.8204 -5.8111 6.51404
head 12.5346 -2.75271 3.15656
rclavicle 2.36305e-014 1.39149e-015
rhumerus -30.7834 -10.9407 -78.9355
rradius 34.7858
rwrist 7.06584
rhand -10.7849 10.185
rfingers 7.12502
rthumb 15.2277 -19.2345
lclavicle 2.36305e-014 1.39149e-015
lhumerus -35.9176 3.93868 83.1978
lradius 30.7347
lwrist -10.9959
lhand -13.9167 26.1361
lfingers 7.12502
lthumb 12.2094 55.7597
rfemur 1.41823 4.8809 29.3005
rtibia 24.3117
rfoot -18.6101 -7.64635
rtoes 5.27679
lfemur -24.0033 -4.0624 -14.8906
ltibia 21.8691
lfoot -6.77567 6.34914
ltoes -0.730056
331
root -3.67625 18.0729 6.08208 3.04834 -46.7003 -4.33072
lowerback 10.4205 2.38247 4.14253
upperback 0.901563 3.66407 0.827062
thorax -4.69049 1.7243 -1.97984
lowerneck -20.8432 -4.97232 -9.97875
upperneck 25.6888 -5.72524 6.59117
head 12.479 -2.71048 3.21238
rclavicle -1.84497e-014 -1.59028e-015
rhumerus -30.4481 -10.5957 -79.0507
rradius 35.1397
rwrist 6.79097
rhand -10.7778 10.109
rfingers 7.12502
rthumb 15.2345 -19.31
lclavicle -1.84497e-014 -1.59028e-015
lhumerus -36.1084 4.23695 83.0458
lradius 30.6649
lwrist -11.0133
lhand -14.02 25.8821
lfingers 7.12502
lthumb 12.1099 55.5117
rfemur 2.17328 4.86259 29.428
rtibia 23.866
rfoot -18.6432 -7.49724
rtoes 5.1331
lfemur -23.7793 -5.22305 -14.3452
ltibia 19.733
lfoot -6.61165 7.06105
ltoes -5.04892
332
root -3.76697 18.061 6.18392 3.22834 -46.8936 -4.58806
lowerback 10.4318 2.4139 4.31081
upperback 0.949471 3.72446 0.857138
thorax -4.63422 1.75263 -2.04943
lowerneck -20.9062 -4.9297 -10.0146
upperneck 25.615 -5.65263 6.63743
head 12.4577 -2.67335 3.24726
rclavicle -7.22582e-014 -1.09332e-014
rhumerus -30.1715 -10.448 -79.0986
rradius 35.5635
rwrist 6.72488
rhand -10.7559 9.92212
rfingers 7.12502
rthumb 15.2556 -19.4953
lclavicle -7.22582e-014 -1.09332e-014
lhumerus -36.2038 4.45151 82.9563
lradius 30.552
lwrist -10.8798
lhand -13.4732 25.795
lfingers 7.12502
lthumb 12.637 55.3927
rfemur 2.84762 4.60681 29.5708
rtibia 23.4549
rfoot -18.4585 -7.47978
rtoes 2.69254
lfemur -23.6233 -6.27946 -13.7956
ltibia 17.8451
lfoot -6.63136 7.76906
ltoes -7.03912
333
root -3.85821 18.051 6.28396 3.38711 -47.0626 -4.65856
lowerback 10.3798 2.47966 4.29836
upperback 0.922698 3.81011 0.883851
thorax -4.63054 1.79523 -2.02413
lowerneck -20.9335 -4.93068 -10.0939
upperneck 25.6156 -5.64608 6.71327
head 12.4682 -2.66779 3.29102
rclavicle 4.47017e-014 -3.77691e-015
rhumerus -30.0731 -10.1615 -79.0467
rradius 36.0648
rwrist 6.59079
rhand -10.7464 10.0407
rfingers 7.12502
rthumb 15.2648 -19.3761
lclavicle 4.47017e-014 -3.77691e-015
lhumerus -36.3238 4.66117 82.9636
lradius 30.3749
lwrist -10.852
lhand -13.327 26.2791
lfingers 7.12502
lthumb 12.7779 55.8681
rfemur 3.35991 4.3412 29.553
rtibia 23.0903
rfoot -18.4802 -7.35615
rtoes 1.74233
lfemur -23.6998 -6.99043 -13.4817
ltibia 16.2923
lfoot -6.7344 8.39103
ltoes -7.35102
334
root -3.94791 18.04 6.38005 3.43965 -47.2359 -4.53809
lowerback 10.3521 2.57496 4.16181
upperback 0.86299 3.92057 0.840177
thorax -4.6768 1.85059 -2.00862
lowerneck -20.8161 -4.95643 -10.1484
upperneck 25.5115 -5.70203 6.81613
head 12.4144 -2.68576 3.32925
rclavicle -9.20249e-014 6.55989e-015
rhumerus -29.9797 -9.82141 -79.0548
rradius 36.5467
rwrist 6.14308
rhand -10.9371 10.0893
rfingers 7.12502
rthumb 15.0811 -19.3413
lclavicle -9.20249e-014 6.55989e-015
lhumerus -36.4954 4.83804 82.9141
lradius 30.2793
lwrist -10.9305
lhand -13.5418 26.5443
lfingers 7.12502
lthumb 12.5709 56.1461
rfemur 3.82297 4.29254 29.4397
rtibia 22.7988
rfoot -18.5815 -7.30177
rtoes 1.95151
lfemur -23.8446 -7.48852 -13.3503
ltibia 15.0918
lfoot -7.12244 8.89755
ltoes -8.47111
335
root -4.03682 18.0254 6.48085 3.58725 -47.3695 -4.59873
lowerback 10.2648 2.63762 4.1979
upperback 0.862233 4.00269 0.822992
thorax -4.6201 1.89189 -2.05241
lowerneck -20.797 -4.9441 -10.0166
upperneck 25.4232 -5.70434 6.74368
head 12.3685 -2.68231 3.27701
rclavicle 2.29845e-014 7.95139e-016
rhumerus -29.7415 -9.6617 -79.0847
rradius 36.9506
rwrist 5.72677
rhand -11.1026 9.70516
rfingers 7.12502
rthumb 14.9216 -19.7374
lclavicle 2.29845e-014 7.95139e-016
lhumerus -36.5595 5.24518 82.7565
lradius 30.0932
lwrist -11.2498
lhand -13.8847 26.372
lfingers 7.12502
lthumb 12.2403 55.9938
rfemur 4.2941 4.34702 29.4727
rtibia 22.6306
rfoot -18.6779 -7.30326
rtoes 2.08639
lfemur -23.9064 -7.79566 -13.1571
ltibia 14.1907
lfoot -7.45707 9.13453
ltoes -11.0474
336
root -4.12582 18.0112 6.5862 3.68315 -47.5035 -4.63306
lowerback 10.1486 2.66622 4.22863
upperback 0.916485 4.03475 0.802436
thorax -4.49277 1.91102 -2.08639
lowerneck -20.9722 -4.90303 -9.79486
upperneck 25.462 -5.65015 6.56226
head 12.3993 -2.65652 3.17817
rclavicle -8.80616e-014 -1.63003e-014
rhumerus -29.3873 -9.687 -79.0913
rradius 37.2184
rwrist 5.70166
rhand -11.3856 9.25191
rfingers 7.12502
rthumb 14.649 -20.2106
lclavicle -8.80616e-014 -1.63003e-014
lhumerus -36.5728 5.51599 82.6544
lradius 29.9004
lwrist -11.4695
lhand -14.2329 26.2014
lfingers 7.12502
lthumb 11.9045 55.8429
rfemur 4.74874 4.43262 29.4689
rtibia 22.5669
rfoot -18.7308 -7.35874
rtoes 1.13577
lfemur -23.9161 -7.62317 -13.1586
ltibia 13.6394
lfoot -7.68424 8.70798
ltoes -11.656
337
root -4.21372 17.9993 6.68707 3.71138 -47.5448 -4.54087
lowerback 10.137 2.6515 4.15297
upperback 0.866604 4.00644 0.75465
thorax -4.54203 1.89656 -2.09139
lowerneck -20.9639 -4.87644 -9.77427
upperneck 25.5314 -5.63204 6.5844
head 12.4232 -2.64489 3.18789
rclavicle -1.03778e-013 7.95139e-015
rhumerus -29.1626 -9.71524 -79.1247
rradius 37.4424
rwrist 5.80107
rhand -11.9308 8.75627
rfingers 7.12502
rthumb 14.1237 -20.7437
lclavicle -1.03778e-013 7.95139e-015
lhumerus -36.795 5.81242 82.4945
lradius 29.749
lwrist -11.8182
lhand -14.2974 25.9267
lfingers 7.12502
lthumb 11.8423 55.5719
rfemur 5.16525 4.60991 29.4063
rtibia 22.5394
rfoot -18.8503 -7.42604
rtoes 0.937666
lfemur -24.0248 -6.98281 -13.4559
ltibia 13.5055
lfoot -7.41435 7.65051
ltoes -10.5414
